%TF.GenerationSoftware,KiCad,Pcbnew,(7.0.0)*%
%TF.CreationDate,2023-03-02T20:10:48+13:00*%
%TF.ProjectId,pico_expansion_board,7069636f-5f65-4787-9061-6e73696f6e5f,rev?*%
%TF.SameCoordinates,Original*%
%TF.FileFunction,Paste,Top*%
%TF.FilePolarity,Positive*%
%FSLAX46Y46*%
G04 Gerber Fmt 4.6, Leading zero omitted, Abs format (unit mm)*
G04 Created by KiCad (PCBNEW (7.0.0)) date 2023-03-02 20:10:48*
%MOMM*%
%LPD*%
G01*
G04 APERTURE LIST*
G04 Aperture macros list*
%AMRoundRect*
0 Rectangle with rounded corners*
0 $1 Rounding radius*
0 $2 $3 $4 $5 $6 $7 $8 $9 X,Y pos of 4 corners*
0 Add a 4 corners polygon primitive as box body*
4,1,4,$2,$3,$4,$5,$6,$7,$8,$9,$2,$3,0*
0 Add four circle primitives for the rounded corners*
1,1,$1+$1,$2,$3*
1,1,$1+$1,$4,$5*
1,1,$1+$1,$6,$7*
1,1,$1+$1,$8,$9*
0 Add four rect primitives between the rounded corners*
20,1,$1+$1,$2,$3,$4,$5,0*
20,1,$1+$1,$4,$5,$6,$7,0*
20,1,$1+$1,$6,$7,$8,$9,0*
20,1,$1+$1,$8,$9,$2,$3,0*%
G04 Aperture macros list end*
%ADD10R,1.525000X0.650000*%
%ADD11R,2.600000X3.100000*%
%ADD12R,1.800000X1.700000*%
%ADD13R,3.600000X2.700000*%
%ADD14RoundRect,0.250000X1.950000X1.000000X-1.950000X1.000000X-1.950000X-1.000000X1.950000X-1.000000X0*%
%ADD15RoundRect,0.100000X0.637500X0.100000X-0.637500X0.100000X-0.637500X-0.100000X0.637500X-0.100000X0*%
%ADD16R,1.000000X0.600000*%
%ADD17R,0.350000X0.650000*%
%ADD18RoundRect,0.250000X-0.475000X0.250000X-0.475000X-0.250000X0.475000X-0.250000X0.475000X0.250000X0*%
%ADD19RoundRect,0.250000X0.450000X-0.262500X0.450000X0.262500X-0.450000X0.262500X-0.450000X-0.262500X0*%
%ADD20RoundRect,0.250000X0.475000X-0.250000X0.475000X0.250000X-0.475000X0.250000X-0.475000X-0.250000X0*%
%ADD21RoundRect,0.250000X-0.250000X-0.475000X0.250000X-0.475000X0.250000X0.475000X-0.250000X0.475000X0*%
%ADD22R,1.300000X1.550000*%
%ADD23RoundRect,0.250000X0.250000X0.475000X-0.250000X0.475000X-0.250000X-0.475000X0.250000X-0.475000X0*%
%ADD24RoundRect,0.150000X-0.825000X-0.150000X0.825000X-0.150000X0.825000X0.150000X-0.825000X0.150000X0*%
%ADD25RoundRect,0.250000X-0.450000X0.262500X-0.450000X-0.262500X0.450000X-0.262500X0.450000X0.262500X0*%
G04 APERTURE END LIST*
D10*
%TO.C,IC1*%
X116413999Y-110616999D03*
X116413999Y-111886999D03*
X116413999Y-113156999D03*
X116413999Y-114426999D03*
X121837999Y-114426999D03*
X121837999Y-113156999D03*
X121837999Y-111886999D03*
X121837999Y-110616999D03*
D11*
X119125999Y-112521999D03*
%TD*%
D12*
%TO.C,D1*%
X116857999Y-108203999D03*
X112757999Y-108203999D03*
%TD*%
D13*
%TO.C,L1*%
X128777999Y-109051999D03*
X128777999Y-100751999D03*
%TD*%
D14*
%TO.C,C18*%
X111116000Y-101346000D03*
X119516000Y-101346000D03*
%TD*%
D15*
%TO.C,U4*%
X96334500Y-97241000D03*
X96334500Y-96591000D03*
X96334500Y-95941000D03*
X96334500Y-95291000D03*
X90609500Y-95291000D03*
X90609500Y-95941000D03*
X90609500Y-96591000D03*
X90609500Y-97241000D03*
%TD*%
D16*
%TO.C,U2*%
X92363999Y-80397499D03*
X93563999Y-80397499D03*
X92363999Y-79622499D03*
X93563999Y-79622499D03*
D17*
X91988999Y-81559999D03*
X92638999Y-81559999D03*
X93288999Y-81559999D03*
X93938999Y-81559999D03*
X93938999Y-78459999D03*
X93288999Y-78459999D03*
X92638999Y-78459999D03*
X91988999Y-78459999D03*
%TD*%
D18*
%TO.C,C5*%
X124460000Y-112588000D03*
X124460000Y-114488000D03*
%TD*%
D19*
%TO.C,R1*%
X111252000Y-73048500D03*
X111252000Y-71223500D03*
%TD*%
D20*
%TO.C,C7*%
X111571000Y-90993000D03*
X111571000Y-89093000D03*
%TD*%
%TO.C,C2*%
X96104000Y-81080500D03*
X96104000Y-79180500D03*
%TD*%
D21*
%TO.C,C1*%
X114431000Y-79375000D03*
X116331000Y-79375000D03*
%TD*%
D22*
%TO.C,SW1*%
X118653999Y-78396999D03*
X118653999Y-70446999D03*
X123153999Y-78396999D03*
X123153999Y-70446999D03*
%TD*%
D23*
%TO.C,C3*%
X94006000Y-83566000D03*
X92106000Y-83566000D03*
%TD*%
D18*
%TO.C,C9*%
X127254000Y-112588000D03*
X127254000Y-114488000D03*
%TD*%
%TO.C,C4*%
X123255000Y-80965000D03*
X123255000Y-82865000D03*
%TD*%
D23*
%TO.C,C19*%
X125918000Y-96774000D03*
X124018000Y-96774000D03*
%TD*%
D20*
%TO.C,C8*%
X111571000Y-83373000D03*
X111571000Y-81473000D03*
%TD*%
D18*
%TO.C,C16*%
X130048000Y-112588000D03*
X130048000Y-114488000D03*
%TD*%
%TO.C,C6*%
X111571000Y-85283000D03*
X111571000Y-87183000D03*
%TD*%
D24*
%TO.C,U1*%
X114684000Y-81788000D03*
X114684000Y-83058000D03*
X114684000Y-84328000D03*
X114684000Y-85598000D03*
X114684000Y-86868000D03*
X114684000Y-88138000D03*
X114684000Y-89408000D03*
X114684000Y-90678000D03*
X119634000Y-90678000D03*
X119634000Y-89408000D03*
X119634000Y-88138000D03*
X119634000Y-86868000D03*
X119634000Y-85598000D03*
X119634000Y-84328000D03*
X119634000Y-83058000D03*
X119634000Y-81788000D03*
%TD*%
D19*
%TO.C,R6*%
X114046000Y-113180500D03*
X114046000Y-111355500D03*
%TD*%
%TO.C,R3*%
X80264000Y-77112500D03*
X80264000Y-75287500D03*
%TD*%
D25*
%TO.C,R2*%
X111760000Y-111355500D03*
X111760000Y-113180500D03*
%TD*%
D21*
%TO.C,C17*%
X119192000Y-108204000D03*
X121092000Y-108204000D03*
%TD*%
M02*
