M48
; DRILL file {KiCad (7.0.0)} date Tue Feb 28 22:08:47 2023
; FORMAT={-:-/ absolute / inch / decimal}
; #@! TF.CreationDate,2023-02-28T22:08:47+13:00
; #@! TF.GenerationSoftware,Kicad,Pcbnew,(7.0.0)
; #@! TF.FileFunction,Plated,1,4,PTH
FMAT,2
INCH
; #@! TA.AperFunction,Plated,PTH,ViaDrill
T1C0.0157
; #@! TA.AperFunction,Plated,PTH,ComponentDrill
T2C0.0374
; #@! TA.AperFunction,Plated,PTH,ComponentDrill
T3C0.0394
; #@! TA.AperFunction,Plated,PTH,ComponentDrill
T4C0.0402
; #@! TA.AperFunction,Plated,PTH,ComponentDrill
T5C0.0591
; #@! TA.AperFunction,Plated,PTH,ComponentDrill
T6C0.0598
; #@! TA.AperFunction,Plated,PTH,ComponentDrill
T7C0.1260
%
G90
G05
T1
X2.92Y-3.5
X3.04Y-4.58
X3.16Y-3.15
X3.45Y-4.48
X3.5Y-3.81
X3.5Y-3.85
X3.6Y-3.24
X3.6262Y-3.35
X3.701Y-3.35
X3.85Y-3.2
X3.86Y-3.76
X3.95Y-4.0
X4.18Y-2.55
X4.21Y-3.98
X4.3607Y-3.1007
X4.37Y-4.33
X4.3926Y-3.155
X4.3926Y-3.645
X4.42Y-2.75
X4.49Y-4.32
X4.53Y-4.08
X4.54Y-3.86
X4.59Y-3.39
X4.6209Y-3.3591
X4.63Y-3.86
X4.7Y-4.58
X4.73Y-3.86
X4.7826Y-3.205
X4.7852Y-3.2624
X4.79Y-3.77
X4.8486Y-2.9386
X5.01Y-4.58
X5.06Y-3.83
X5.18Y-3.07
X5.18Y-3.29
X5.22Y-4.48
T2
X2.21Y-2.8547
X2.21Y-2.9531
X2.21Y-3.0516
X2.21Y-3.15
X2.21Y-3.8716
X2.21Y-3.97
X2.21Y-4.0684
X2.21Y-4.1669
T3
X2.6896Y-2.92
X2.6898Y-3.99
X2.69Y-3.1
X2.69Y-4.1696
X2.74Y-4.69
X2.74Y-4.79
X2.7896Y-2.92
X2.7898Y-3.99
X2.79Y-3.1
X2.79Y-4.1696
X2.84Y-4.69
X2.84Y-4.79
X2.94Y-4.69
X2.94Y-4.79
X3.04Y-4.69
X3.04Y-4.79
X3.14Y-4.69
X3.14Y-4.79
X3.73Y-4.69
X3.73Y-4.79
X3.83Y-4.69
X3.83Y-4.79
X3.93Y-4.69
X3.93Y-4.79
X4.03Y-4.69
X4.03Y-4.79
X4.13Y-4.69
X4.13Y-4.79
X4.5Y-2.78
X4.5Y-2.88
X4.9902Y-3.4
X4.9902Y-3.5831
X4.9926Y-2.805
X4.9926Y-2.9881
X5.0902Y-3.4
X5.0902Y-3.5831
X5.0926Y-2.805
X5.0926Y-2.9881
X5.4614Y-2.7823
X5.4614Y-2.8913
X5.4614Y-3.0004
X5.4614Y-3.1094
X5.4614Y-3.2185
X5.4614Y-4.1623
X5.4614Y-4.2713
X5.4614Y-4.3804
X5.4614Y-4.4894
X5.4614Y-4.5985
X5.5732Y-2.8368
X5.5732Y-2.9459
X5.5732Y-3.0549
X5.5732Y-3.164
X5.5732Y-4.2168
X5.5732Y-4.3259
X5.5732Y-4.4349
X5.5732Y-4.544
T4
X3.34Y-2.45
X3.34Y-2.55
X3.34Y-2.65
X3.34Y-2.75
X3.34Y-2.85
X3.34Y-2.95
X3.34Y-3.05
X3.34Y-3.15
X3.34Y-3.25
X3.34Y-3.35
X3.34Y-3.45
X3.34Y-3.55
X3.34Y-3.65
X3.34Y-3.75
X3.34Y-3.85
X3.34Y-3.95
X3.34Y-4.05
X3.34Y-4.15
X3.34Y-4.25
X3.34Y-4.35
X3.59Y-4.3409
X3.69Y-4.3409
X3.79Y-4.3409
X4.04Y-2.45
X4.04Y-2.55
X4.04Y-2.65
X4.04Y-2.75
X4.04Y-2.85
X4.04Y-2.95
X4.04Y-3.05
X4.04Y-3.15
X4.04Y-3.25
X4.04Y-3.35
X4.04Y-3.45
X4.04Y-3.55
X4.04Y-3.65
X4.04Y-3.75
X4.04Y-3.85
X4.04Y-3.95
X4.04Y-4.05
X4.04Y-4.15
X4.04Y-4.25
X4.04Y-4.35
T5
X2.49Y-2.6473
X2.49Y-2.7473
X2.49Y-2.8473
X2.49Y-2.9473
X2.49Y-3.0473
X2.49Y-3.1473
X2.49Y-3.2473
X2.49Y-3.3473
X2.49Y-3.67
X2.49Y-3.77
X2.49Y-3.87
X2.49Y-3.97
X2.49Y-4.07
X2.49Y-4.17
X2.49Y-4.27
X2.49Y-4.37
X2.99Y-2.6473
X2.99Y-2.7473
X2.99Y-2.8473
X2.99Y-2.9473
X2.99Y-3.0473
X2.99Y-3.1473
X2.99Y-3.2473
X2.99Y-3.3473
X2.99Y-3.67
X2.99Y-3.77
X2.99Y-3.87
X2.99Y-3.97
X2.99Y-4.07
X2.99Y-4.17
X2.99Y-4.27
X2.99Y-4.37
T6
X4.97Y-4.85
X4.98Y-2.48
X5.17Y-4.85
X5.18Y-2.48
T7
X2.1855Y-2.49
X2.1855Y-4.85
X4.6255Y-2.49
X4.6255Y-4.85
X5.5173Y-2.5083
X5.5173Y-3.4925
X5.5173Y-3.8883
X5.5173Y-4.8725
T0
M30
